<?xml version="1.0" encoding="UTF-8"?>
<svg width="70px" height="70px" viewBox="0 0 70 70" version="1.1" xmlns="http://www.w3.org/2000/svg" xmlns:xlink="http://www.w3.org/1999/xlink">
    <title>design_icon</title>
    <defs>
        <linearGradient x1="50%" y1="-19.1664613%" x2="50%" y2="101.687118%" id="linearGradient-1">
            <stop stop-color="#E35D5B" offset="0%"></stop>
            <stop stop-color="#E53935" offset="100%"></stop>
        </linearGradient>
        <linearGradient x1="50%" y1="-2188.31712%" x2="50%" y2="884.634255%" id="linearGradient-2">
            <stop stop-color="#E35D5B" offset="0%"></stop>
            <stop stop-color="#E53935" offset="100%"></stop>
        </linearGradient>
        <linearGradient x1="50%" y1="-2036.05477%" x2="50%" y2="1035.90338%" id="linearGradient-3">
            <stop stop-color="#E35D5B" offset="0%"></stop>
            <stop stop-color="#E53935" offset="100%"></stop>
        </linearGradient>
        <linearGradient x1="50%" y1="-2338.96548%" x2="50%" y2="742.897361%" id="linearGradient-4">
            <stop stop-color="#E35D5B" offset="0%"></stop>
            <stop stop-color="#E53935" offset="100%"></stop>
        </linearGradient>
        <linearGradient x1="50%" y1="-2185.91682%" x2="50%" y2="891.793775%" id="linearGradient-5">
            <stop stop-color="#E35D5B" offset="0%"></stop>
            <stop stop-color="#E53935" offset="100%"></stop>
        </linearGradient>
        <linearGradient x1="56.322747%" y1="-301.038386%" x2="56.322747%" y2="424.773861%" id="linearGradient-6">
            <stop stop-color="#E35D5B" offset="0%"></stop>
            <stop stop-color="#E53935" offset="100%"></stop>
        </linearGradient>
        <linearGradient x1="50%" y1="-284.423979%" x2="50%" y2="2794.59081%" id="linearGradient-7">
            <stop stop-color="#E35D5B" offset="0%"></stop>
            <stop stop-color="#E53935" offset="100%"></stop>
        </linearGradient>
        <linearGradient x1="50%" y1="-40.8283493%" x2="50%" y2="3036.89156%" id="linearGradient-8">
            <stop stop-color="#E35D5B" offset="0%"></stop>
            <stop stop-color="#E53935" offset="100%"></stop>
        </linearGradient>
        <linearGradient x1="50%" y1="-237.013724%" x2="50%" y2="2841.47611%" id="linearGradient-9">
            <stop stop-color="#E35D5B" offset="0%"></stop>
            <stop stop-color="#E53935" offset="100%"></stop>
        </linearGradient>
        <linearGradient x1="50%" y1="-287.783649%" x2="50%" y2="2783.74187%" id="linearGradient-10">
            <stop stop-color="#E35D5B" offset="0%"></stop>
            <stop stop-color="#E53935" offset="100%"></stop>
        </linearGradient>
        <linearGradient x1="50%" y1="-36.0513189%" x2="50%" y2="3040.46121%" id="linearGradient-11">
            <stop stop-color="#E35D5B" offset="0%"></stop>
            <stop stop-color="#E53935" offset="100%"></stop>
        </linearGradient>
        <linearGradient x1="50%" y1="-137.223704%" x2="50%" y2="2944.59081%" id="linearGradient-12">
            <stop stop-color="#E35D5B" offset="0%"></stop>
            <stop stop-color="#E53935" offset="100%"></stop>
        </linearGradient>
    </defs>
    <g id="•-🚀-Website" stroke="none" stroke-width="1" fill="none" fill-rule="evenodd">
        <g id="Homepage" transform="translate(-524.000000, -868.000000)" fill-rule="nonzero">
            <g id="design_icon" transform="translate(524.000000, 868.000000)">
                <path d="M56,17.5 L57.1666667,17.5 C57.8109583,17.5 58.3333333,16.977625 58.3333333,16.3333333 L58.3333333,11.6666667 C58.3333333,11.022375 57.8109583,10.5 57.1666667,10.5 L45.5,10.5 C44.8557083,10.5 44.3333333,11.022375 44.3333333,11.6666667 L44.3333333,16.3333333 C44.3333333,16.977625 44.8557083,17.5 45.5,17.5 L46.6666667,17.5 L46.6666667,19.8333333 L28,19.8333333 L28,17.5 L29.1666667,17.5 C29.8109583,17.5 30.3333333,16.977625 30.3333333,16.3333333 L30.3333333,11.6666667 C30.3333333,11.022375 29.8109583,10.5 29.1666667,10.5 L15.1666667,10.5 C14.522375,10.5 14,11.022375 14,11.6666667 L14,16.3333333 C14,16.977625 14.522375,17.5 15.1666667,17.5 L16.3333333,17.5 L16.3333333,19.8333333 L9.16766667,19.8333333 C8.7408125,18.2007292 7.4659375,16.9258542 5.83333333,16.499 L5.83333333,11.6666667 L3.5,11.6666667 L3.5,16.499 C1.01179167,17.1352708 -0.489708333,19.6681042 0.1465625,22.1563125 C0.579395833,23.8488542 1.924125,25.1561042 3.62833333,25.5406667 L8.001,58.3333333 L3.5,58.3333333 C2.85570833,58.3333333 2.33333333,58.8557083 2.33333333,59.5 L2.33333333,63 L1.16666667,63 C0.522375,63 0,63.522375 0,64.1666667 L0,68.8333333 C0,69.477625 0.522375,70 1.16666667,70 L68.8333333,70 C69.477625,70 70,69.477625 70,68.8333333 L70,64.1666667 C70,63.522375 69.477625,63 68.8333333,63 L16.3333333,63 L16.3333333,59.5 C16.3333333,58.8557083 15.8109583,58.3333333 15.1666667,58.3333333 L10.3553333,58.3333333 L5.971,25.4578333 C7.54075,24.9986042 8.75422917,23.7491042 9.16766667,22.1666667 L16.3333333,22.1666667 L16.3333333,49 C16.3333333,52.2216042 18.9450625,54.8333333 22.1666667,54.8333333 C25.3882708,54.8333333 28,52.2216042 28,49 L28,22.1666667 L46.6666667,22.1666667 L46.6666667,23.9166667 C38.4337917,26.0640625 32.6832917,33.4916458 32.6666667,42 C32.6666667,42.1435 32.6853333,42.2835 32.6876667,42.4258333 L32.6876667,42.4538333 C32.9231875,51.8555625 40.1105833,59.6166667 49.4666667,60.5721667 C50.0868958,60.6354583 50.7098958,60.6671042 51.3333333,60.6666667 C51.968,60.6666667 52.5956667,60.6328333 53.2151667,60.571 C53.3633333,60.5558333 53.5068333,60.5255 53.655,60.5068333 C54.1216667,60.4485 54.5883333,60.3901667 55.055,60.2921667 C55.1985,60.2641667 55.3361667,60.2198333 55.4785,60.1883333 C55.937,60.0833333 56.392,59.9748333 56.8376667,59.8383333 C56.9543333,59.8021667 57.071,59.7543333 57.1876667,59.7146667 C57.6543333,59.563 58.1046667,59.402 58.548,59.2153333 C58.6471667,59.1733333 58.7416667,59.1243333 58.8385,59.0811667 C59.2935,58.8805 59.7415,58.6693333 60.1766667,58.4348333 C60.2641667,58.3881667 60.3481667,58.3333333 60.4345,58.2843333 C60.8696667,58.0405 61.2966667,57.7861667 61.7085,57.5096667 C61.796,57.4513333 61.8776667,57.393 61.964,57.3265 C62.363,57.0488333 62.755,56.7618333 63.1306667,56.4538333 C63.2286667,56.3733333 63.3208333,56.287 63.4176667,56.2041667 C63.7676667,55.9078333 64.1071667,55.6033333 64.4326667,55.2813333 C64.5493333,55.1646667 64.666,55.048 64.7745,54.9243333 C65.0603333,54.6256667 65.3415,54.3235 65.6075,54.0073333 C65.7486667,53.8393333 65.8793333,53.6655 66.0146667,53.4928333 C66.2328333,53.214 66.4486667,52.9351667 66.6505,52.6435 C66.8138333,52.4101667 66.9643333,52.1675 67.1171667,51.926 C67.27,51.6845 67.417,51.4488333 67.557,51.2026667 C67.7343333,50.89 67.8976667,50.5691667 68.0575,50.2448333 C68.1485,50.0605 68.2418333,49.8773333 68.3258333,49.6883333 C68.5066667,49.2928333 68.6676667,48.8868333 68.8205,48.4773333 C68.866,48.3525 68.9138333,48.23 68.957,48.1051667 C69.1215,47.6291667 69.265,47.145 69.3921667,46.6526667 C69.4096667,46.5838333 69.4283333,46.5161667 69.4446667,46.4485 C69.5776667,45.9041042 69.6857292,45.3541667 69.769,44.7988333 L69.783,44.7113333 C69.8681667,44.128 69.9241667,43.5446667 69.9545,42.9426667 L69.9545,42.9088333 L69.9545,42.8971667 C69.9685,42.5985 70,42.3033333 70,42.0011667 C69.9811875,33.4945625 64.2312708,26.0694583 56,23.9225 L56,22.1666667 L70,22.1666667 L70,19.8333333 L56,19.8333333 L56,17.5 Z M67.6666667,67.6666667 L2.33333333,67.6666667 L2.33333333,65.3333333 L67.6666667,65.3333333 L67.6666667,67.6666667 Z M14,63 L4.66666667,63 L4.66666667,60.6666667 L14,60.6666667 L14,63 Z M4.66666667,23.3333333 C3.3779375,23.3333333 2.33333333,22.2887292 2.33333333,21 C2.33333333,19.7112708 3.3779375,18.6666667 4.66666667,18.6666667 C5.95539583,18.6666667 7,19.7112708 7,21 C7,22.2887292 5.95539583,23.3333333 4.66666667,23.3333333 Z M16.3333333,12.8333333 L28,12.8333333 L28,15.1666667 L16.3333333,15.1666667 L16.3333333,12.8333333 Z M25.6666667,17.5 L25.6666667,37.3333333 L18.6666667,37.3333333 L18.6666667,35 L23.3333333,35 L23.3333333,32.6666667 L18.6666667,32.6666667 L18.6666667,30.3333333 L21,30.3333333 L21,28 L18.6666667,28 L18.6666667,25.6666667 L23.3333333,25.6666667 L23.3333333,23.3333333 L18.6666667,23.3333333 L18.6666667,17.5 L25.6666667,17.5 Z M22.1666667,52.5 C20.2336458,52.5 18.6666667,50.9330208 18.6666667,49 L18.6666667,39.6666667 L25.6666667,39.6666667 L25.6666667,49 C25.6666667,50.9330208 24.0996875,52.5 22.1666667,52.5 Z M46.6666667,12.8333333 L56,12.8333333 L56,15.1666667 L46.6666667,15.1666667 L46.6666667,12.8333333 Z M66.6096667,47.7295 C66.5816667,47.8018333 66.5571667,47.8765 66.5291667,47.9488333 C66.4008333,48.2778333 66.2573333,48.5986667 66.108,48.9171667 C66.0368333,49.0688333 65.9656667,49.2205 65.8898333,49.371 C65.7591667,49.63 65.6203333,49.8843333 65.4756667,50.1351667 C65.3566667,50.3421042 65.233,50.5453958 65.1046667,50.7453333 C64.9798333,50.9425 64.8538333,51.1385 64.7208333,51.3286667 C64.54,51.5865 64.3498333,51.8373333 64.155,52.0846667 C64.0535,52.2141667 63.9555,52.3471667 63.8493333,52.4743333 C63.5565,52.8243333 63.252,53.1591667 62.9323333,53.4823333 C62.9101667,53.5045 62.8903333,53.529 62.8681667,53.5511667 C62.1371042,54.2803333 61.3391042,54.9393542 60.4846667,55.5193333 C60.4426667,55.5485 60.3995,55.573 60.3575,55.601 C59.9848958,55.8483333 59.6019375,56.0816667 59.2083333,56.301 C59.1091667,56.3558333 59.0076667,56.406 58.9073333,56.4585 C58.5655,56.6381667 58.2166667,56.8085 57.8573333,56.9625 C57.7231667,57.0208333 57.589,57.0791667 57.4536667,57.1305 C57.1223333,57.2658333 56.7851667,57.3883333 56.4445,57.5015 C56.2881667,57.5528333 56.1318333,57.6041667 55.9778333,57.6508333 C55.6453333,57.75 55.3058333,57.834 54.9651667,57.9121667 C54.7971667,57.9506667 54.6315,57.9926667 54.4623333,58.0288333 C54.1053333,58.0976667 53.7425,58.1455 53.3785,58.1945 C53.2221667,58.2143333 53.0693333,58.2411667 52.9118333,58.2563333 C52.3915,58.3065 51.8618333,58.3368333 51.3321667,58.3368333 C50.8025,58.3368333 50.2658333,58.3076667 49.742,58.2563333 C49.42,58.2248333 49.105,58.1688333 48.7888333,58.1186667 C48.6021667,58.0895 48.412,58.0685 48.2276667,58.0323333 C47.7913333,57.946 47.362,57.8398333 46.9373333,57.7185 C46.8883333,57.7056667 46.8381667,57.6951667 46.7891667,57.6811667 C40.4435208,55.7958333 35.8420417,50.2961667 35.1061667,43.7173333 C36.0785833,43.9509583 36.967,44.4497083 37.6728333,45.1581667 C40.7073333,48.1869792 45.6213333,48.1869792 48.6558333,45.1581667 C50.7794583,43.0408125 54.215875,43.0408125 56.3395,45.1581667 C59.3716667,48.1910625 64.2884375,48.1915 67.3213333,45.1593333 C67.3217708,45.1588958 67.3220625,45.1586042 67.3225,45.1581667 L67.3411667,45.1395 C67.1687917,46.0215 66.9242292,46.88775 66.6096667,47.7295 L66.6096667,47.7295 Z M67.6666667,42 L67.6666667,42.0781667 C66.933125,42.4455208 66.2634583,42.928375 65.6833333,43.5085 C63.5616042,45.6302292 60.1213958,45.6302292 57.9996667,43.5085 C57.9996667,43.5085 57.9996667,43.5085 57.9996667,43.5085 C54.9651667,40.4796875 50.0511667,40.4796875 47.0166667,43.5085 C44.8949375,45.6302292 41.4547292,45.6302292 39.333,43.5085 C39.333,43.5085 39.333,43.5085 39.333,43.5085 C38.1704167,42.3435833 36.6646875,41.5820417 35.0373333,41.3361667 C35.3514583,33.840625 40.7210417,27.5183125 48.0666667,25.9945 C48.6098958,25.8836667 49.0001458,25.405625 49,24.8511667 L49,17.5 L53.6666667,17.5 L53.6666667,24.85 C53.6665208,25.4044583 54.0567708,25.8825 54.6,25.9933333 C62.19675,27.5610417 67.6515,34.2432708 67.6666667,42 L67.6666667,42 Z" id="Shape" fill="url(#linearGradient-1)"></path>
                <g id="Group" transform="translate(16.333333, 0.000000)">
                    <polygon id="Path" fill="url(#linearGradient-2)" points="25.6666667 50.1666667 28 50.1666667 28 52.5 25.6666667 52.5"></polygon>
                    <polygon id="Path" fill="url(#linearGradient-3)" points="35 46.6666667 37.3333333 46.6666667 37.3333333 49 35 49"></polygon>
                    <polygon id="Path" fill="url(#linearGradient-4)" points="32.6666667 53.6666667 35 53.6666667 35 56 32.6666667 56"></polygon>
                    <polygon id="Path" fill="url(#linearGradient-5)" points="42 50.1666667 44.3333333 50.1666667 44.3333333 52.5 42 52.5"></polygon>
                    <path d="M21.5273333,38.1826667 L23.772,38.8173333 C24.7766458,35.3066875 27.3593542,32.4643958 30.758,31.129 L29.9086667,28.9543333 C25.8305833,30.5580625 22.7322083,33.9695417 21.5273333,38.1826667 L21.5273333,38.1826667 Z" id="Path" fill="url(#linearGradient-6)"></path>
                    <polygon id="Path" fill="url(#linearGradient-7)" points="0 5.83333333 2.33333333 5.83333333 2.33333333 8.16666667 0 8.16666667"></polygon>
                    <polygon id="Path" fill="url(#linearGradient-8)" points="3.5 0 5.83333333 0 5.83333333 2.33333333 3.5 2.33333333"></polygon>
                    <polygon id="Path" fill="url(#linearGradient-9)" points="8.16666667 4.66666667 10.5 4.66666667 10.5 7 8.16666667 7"></polygon>
                    <polygon id="Path" fill="url(#linearGradient-10)" points="33.8333333 5.83333333 36.1666667 5.83333333 36.1666667 8.16666667 33.8333333 8.16666667"></polygon>
                    <polygon id="Path" fill="url(#linearGradient-11)" points="29.1666667 0 31.5 0 31.5 2.33333333 29.1666667 2.33333333"></polygon>
                    <polygon id="Path" fill="url(#linearGradient-12)" points="38.5 2.33333333 40.8333333 2.33333333 40.8333333 4.66666667 38.5 4.66666667"></polygon>
                </g>
            </g>
        </g>
    </g>
</svg>