<?xml version="1.0" encoding="UTF-8"?>
<svg width="70px" height="70px" viewBox="0 0 70 70" version="1.1" xmlns="http://www.w3.org/2000/svg" xmlns:xlink="http://www.w3.org/1999/xlink">
    <title>frontend_icon copy</title>
    <defs>
        <linearGradient x1="50%" y1="-2544.20624%" x2="50%" y2="540.317818%" id="linearGradient-1">
            <stop stop-color="#E35D5B" offset="0%"></stop>
            <stop stop-color="#E53935" offset="100%"></stop>
        </linearGradient>
        <linearGradient x1="50%" y1="-1.32700134%" x2="50%" y2="101.112027%" id="linearGradient-2">
            <stop stop-color="#E35D5B" offset="0%"></stop>
            <stop stop-color="#E53935" offset="100%"></stop>
        </linearGradient>
        <linearGradient x1="50%" y1="-1631.29039%" x2="50%" y2="1439.16895%" id="linearGradient-3">
            <stop stop-color="#E35D5B" offset="0%"></stop>
            <stop stop-color="#E53935" offset="100%"></stop>
        </linearGradient>
        <linearGradient x1="50%" y1="-1830.74488%" x2="50%" y2="1245.85952%" id="linearGradient-4">
            <stop stop-color="#E35D5B" offset="0%"></stop>
            <stop stop-color="#E53935" offset="100%"></stop>
        </linearGradient>
        <linearGradient x1="50%" y1="-1438.94364%" x2="50%" y2="1635.46266%" id="linearGradient-5">
            <stop stop-color="#E35D5B" offset="0%"></stop>
            <stop stop-color="#E53935" offset="100%"></stop>
        </linearGradient>
        <linearGradient x1="50%" y1="-239.360793%" x2="50%" y2="2841.75212%" id="linearGradient-6">
            <stop stop-color="#E35D5B" offset="0%"></stop>
            <stop stop-color="#E53935" offset="100%"></stop>
        </linearGradient>
        <linearGradient x1="50%" y1="-236.809711%" x2="50%" y2="2843.18008%" id="linearGradient-7">
            <stop stop-color="#E35D5B" offset="0%"></stop>
            <stop stop-color="#E53935" offset="100%"></stop>
        </linearGradient>
        <linearGradient x1="50%" y1="-245.071629%" x2="50%" y2="2843.53635%" id="linearGradient-8">
            <stop stop-color="#E35D5B" offset="0%"></stop>
            <stop stop-color="#E53935" offset="100%"></stop>
        </linearGradient>
        <linearGradient x1="50%" y1="-1445.25422%" x2="50%" y2="1646.40847%" id="linearGradient-9">
            <stop stop-color="#E35D5B" offset="0%"></stop>
            <stop stop-color="#E53935" offset="100%"></stop>
        </linearGradient>
        <linearGradient x1="50%" y1="-209.784153%" x2="50%" y2="601.073226%" id="linearGradient-10">
            <stop stop-color="#E35D5B" offset="0%"></stop>
            <stop stop-color="#E53935" offset="100%"></stop>
        </linearGradient>
        <linearGradient x1="50%" y1="-210.164439%" x2="50%" y2="599.418978%" id="linearGradient-11">
            <stop stop-color="#E35D5B" offset="0%"></stop>
            <stop stop-color="#E53935" offset="100%"></stop>
        </linearGradient>
        <linearGradient x1="50%" y1="-133.977513%" x2="50%" y2="439.595999%" id="linearGradient-12">
            <stop stop-color="#E35D5B" offset="0%"></stop>
            <stop stop-color="#E53935" offset="100%"></stop>
        </linearGradient>
    </defs>
    <g id="•-🚀-Website" stroke="none" stroke-width="1" fill="none" fill-rule="evenodd">
        <g id="Homepage" transform="translate(-101.000000, -868.000000)" fill-rule="nonzero">
            <g id="frontend_icon-copy" transform="translate(101.000000, 868.000000)">
                <g id="Group">
                    <polygon id="Path" fill="url(#linearGradient-1)" points="33.8333333 58.3333333 36.1666667 58.3333333 36.1666667 60.6666667 33.8333333 60.6666667"></polygon>
                    <path d="M68.8333333,60.6666667 L67.6666667,60.6666667 L67.6666667,18.6666667 C67.6666667,16.0893542 65.5773125,14 63,14 L56,14 L56,4.66666667 C56,2.08935417 53.9106458,0 51.3333333,0 L18.6666667,0 C16.0893542,0 14,2.08935417 14,4.66666667 L14,14 L7,14 C4.4226875,14 2.33333333,16.0893542 2.33333333,18.6666667 L2.33333333,60.6666667 L1.16666667,60.6666667 C0.522375,60.6666667 0,61.1890417 0,61.8333333 L0,65.3333333 C0,67.9106458 2.08935417,70 4.66666667,70 L65.3333333,70 C67.9106458,70 70,67.9106458 70,65.3333333 L70,61.8333333 C70,61.1890417 69.477625,60.6666667 68.8333333,60.6666667 Z M18.6666667,50.1666667 L51.3333333,50.1666667 C53.9106458,50.1666667 56,48.0773125 56,45.5 L56,21 L60.6666667,21 L60.6666667,53.6666667 L9.33333333,53.6666667 L9.33333333,21 L14,21 L14,45.5 C14,48.0773125 16.0893542,50.1666667 18.6666667,50.1666667 Z M16.3333333,11.6666667 L53.6666667,11.6666667 L53.6666667,45.5 C53.6666667,46.7887292 52.6220625,47.8333333 51.3333333,47.8333333 L18.6666667,47.8333333 C17.3779375,47.8333333 16.3333333,46.7887292 16.3333333,45.5 L16.3333333,11.6666667 Z M18.6666667,2.33333333 L51.3333333,2.33333333 C52.6220625,2.33333333 53.6666667,3.3779375 53.6666667,4.66666667 L53.6666667,9.33333333 L16.3333333,9.33333333 L16.3333333,4.66666667 C16.3333333,3.3779375 17.3779375,2.33333333 18.6666667,2.33333333 Z M4.66666667,18.6666667 C4.66666667,17.3779375 5.71127083,16.3333333 7,16.3333333 L14,16.3333333 L14,18.6666667 L8.16666667,18.6666667 C7.522375,18.6666667 7,19.1890417 7,19.8333333 L7,54.8333333 C7,55.477625 7.522375,56 8.16666667,56 L61.8333333,56 C62.477625,56 63,55.477625 63,54.8333333 L63,19.8333333 C63,19.1890417 62.477625,18.6666667 61.8333333,18.6666667 L56,18.6666667 L56,16.3333333 L63,16.3333333 C64.2887292,16.3333333 65.3333333,17.3779375 65.3333333,18.6666667 L65.3333333,60.6666667 L45.5,60.6666667 C45.1908333,60.666375 44.8940625,60.7890208 44.6751667,61.0073333 L42.6836667,63 L27.3163333,63 L25.3248333,61.0073333 C25.1059375,60.7890208 24.8091667,60.666375 24.5,60.6666667 L4.66666667,60.6666667 L4.66666667,18.6666667 Z M67.6666667,65.3333333 C67.6666667,66.6220625 66.6220625,67.6666667 65.3333333,67.6666667 L4.66666667,67.6666667 C3.3779375,67.6666667 2.33333333,66.6220625 2.33333333,65.3333333 L2.33333333,63 L24.017,63 L26.0085,64.9915 C26.22725,65.21025 26.523875,65.3333333 26.8333333,65.3333333 L43.1666667,65.3333333 C43.476125,65.3333333 43.77275,65.21025 43.9915,64.9915 L45.983,63 L67.6666667,63 L67.6666667,65.3333333 Z" id="Shape" fill="url(#linearGradient-2)"></path>
                    <polygon id="Path" fill="url(#linearGradient-3)" points="19.8333333 37.3333333 50.1666667 37.3333333 50.1666667 39.6666667 19.8333333 39.6666667"></polygon>
                </g>
                <g id="Group" transform="translate(18.666667, 4.666667)">
                    <polygon id="Path" fill="url(#linearGradient-4)" points="1.16666667 37.3333333 29.1666667 37.3333333 29.1666667 39.6666667 1.16666667 39.6666667"></polygon>
                    <polygon id="Path" fill="url(#linearGradient-5)" points="8.16666667 28 31.5 28 31.5 30.3333333 8.16666667 30.3333333"></polygon>
                    <polygon id="Path" fill="url(#linearGradient-6)" points="0 0 2.33333333 0 2.33333333 2.33333333 0 2.33333333"></polygon>
                    <polygon id="Path" fill="url(#linearGradient-7)" points="4.66666667 0 7 0 7 2.33333333 4.66666667 2.33333333"></polygon>
                    <polygon id="Path" fill="url(#linearGradient-8)" points="9.33333333 0 11.6666667 0 11.6666667 2.33333333 9.33333333 2.33333333"></polygon>
                    <polygon id="Path" fill="url(#linearGradient-9)" points="3.5 28 5.83333333 28 5.83333333 30.3333333 3.5 30.3333333"></polygon>
                    <path d="M10.9666667,21.9333333 L12.3666667,20.0666667 L8.94483333,17.5 L12.3666667,14.9333333 L10.9666667,13.0666667 L6.3,16.5666667 C5.78447917,16.9532708 5.6800625,17.6844792 6.06666667,18.2 C6.13302083,18.288375 6.211625,18.3669792 6.3,18.4333333 L10.9666667,21.9333333 Z" id="Path" fill="url(#linearGradient-10)"></path>
                    <path d="M21.7,21.9333333 L26.3666667,18.4333333 C26.8821875,18.0467292 26.9866042,17.3155208 26.6,16.8 C26.5336458,16.711625 26.4550417,16.6330208 26.3666667,16.5666667 L21.7,13.0666667 L20.3,14.9333333 L23.7218333,17.5 L20.3,20.0666667 L21.7,21.9333333 Z" id="Path" fill="url(#linearGradient-11)"></path>
                </g>
                <polygon id="Path" fill="url(#linearGradient-12)" points="31.5837083 27.5661458 36.2513958 15.9003542 38.4187708 16.767625 33.7510833 28.4334167"></polygon>
            </g>
        </g>
    </g>
</svg>