<?xml version="1.0" encoding="UTF-8"?>
<svg width="58px" height="59px" viewBox="0 0 58 59" version="1.1" xmlns="http://www.w3.org/2000/svg" xmlns:xlink="http://www.w3.org/1999/xlink">
    <title>Group 7</title>
    <defs>
        <linearGradient x1="49.9997715%" y1="-2.88987152e-05%" x2="49.9997715%" y2="100%" id="linearGradient-1">
            <stop stop-color="#E25D5B" offset="0%"></stop>
            <stop stop-color="#E43834" offset="100%"></stop>
        </linearGradient>
        <linearGradient x1="49.9986624%" y1="-0.00783463429%" x2="49.9986624%" y2="100.008476%" id="linearGradient-2">
            <stop stop-color="#E25D5B" offset="0%"></stop>
            <stop stop-color="#E43834" offset="100%"></stop>
        </linearGradient>
    </defs>
    <g id="•-🚀-Website" stroke="none" stroke-width="1" fill="none" fill-rule="evenodd">
        <g id="Homepage" transform="translate(-100.000000, -3256.000000)">
            <g id="Group-7" transform="translate(100.000000, 3256.000000)">
                <g id="Group-3" transform="translate(40.701754, 12.677825)"></g>
                <path d="M1.59550877,0.0175438596 C0.70922807,0.0470526316 0,0.774596491 0,1.66596491 L0,1.66596491 L0,41.1344561 C0,41.8497895 0.387684211,42.5081404 1.01449123,42.8561404 L1.01449123,42.8561404 L3.04449123,43.9795088 L26.0440351,57.0997193 L28.0038246,58.2108772 C28.3050175,58.3818246 28.6418246,58.4672982 28.977614,58.4672982 L28.977614,58.4672982 C29.3144211,58.4672982 29.6512281,58.380807 29.9524211,58.2088421 L29.9524211,58.2088421 L31.9020351,57.0997193 L54.8110175,43.9795088 L56.7362105,42.8622456 C57.3426667,42.5101754 57.7171228,41.862 57.7171228,41.1609123 L57.7171228,41.1609123 L57.7171228,1.66596491 C57.7171228,0.774596491 57.0078947,0.0470526316 56.1226316,0.0175438596 L56.1226316,0.0175438596 L1.59550877,0.0175438596 Z M6.10526316,38.6964211 L6.10526316,6.12280702 L29.939193,6.12280702 L32.7191228,6.12280702 L51.6118596,6.12280702 L51.6118596,38.7757895 L42.9688421,43.7261404 L42.9688421,24.4314737 L28.8585614,34.5692632 L14.7482807,24.4314737 L14.7482807,43.6264211 L6.10526316,38.6964211 Z M36.5542456,36.4741053 L36.5542456,47.3994737 L28.9725263,51.7413333 L21.1618596,47.2865263 L21.1618596,36.4741053 L28.8585614,42.4114737 L36.5542456,36.4741053 Z" id="Fill-4" fill="url(#linearGradient-1)"></path>
                <path d="M41.2420702,14.2926667 L41.8393684,15.9736491 C42.5597895,15.6470175 43.5559649,15.3285263 44.7861754,15.3285263 L44.7861754,15.3285263 C45.6195439,15.3285263 46.4172982,15.4465614 46.4172982,15.8189825 L46.4172982,15.8189825 C46.4172982,16.0825263 46.052,16.2005614 44.9347368,16.3918596 L44.9347368,16.3918596 C43.7289474,16.6004561 42.8365614,16.9006316 42.177193,17.4724912 L42.177193,17.4724912 C41.5188421,18.0453684 41.1637193,18.8349825 41.1637193,20.1069123 L41.1637193,20.1069123 L41.1637193,20.5515789 L48.3323158,20.5515789 L48.3323158,18.7352632 L43.5824211,18.7352632 C43.7635439,18.2804211 44.4575088,18.1807018 45.6276842,17.9731228 L45.6276842,17.9731228 C46.9718596,17.7268772 48.4971579,17.4358596 48.4971579,15.855614 L48.4971579,15.855614 C48.4971579,14.1573333 46.8070175,13.5122105 44.8217895,13.5122105 L44.8217895,13.5122105 C43.303614,13.5122105 42.1263158,13.8744561 41.2420702,14.2926667" id="Fill-1" fill="url(#linearGradient-2)"></path>
            </g>
        </g>
    </g>
</svg>