<?xml version="1.0" encoding="UTF-8"?>
<svg width="70px" height="70px" viewBox="0 0 70 70" version="1.1" xmlns="http://www.w3.org/2000/svg" xmlns:xlink="http://www.w3.org/1999/xlink">
    <title>shop_icon</title>
    <defs>
        <linearGradient x1="50%" y1="-1.40322543%" x2="50%" y2="101.556725%" id="linearGradient-1">
            <stop stop-color="#E35D5B" offset="0%"></stop>
            <stop stop-color="#E53935" offset="100%"></stop>
        </linearGradient>
        <linearGradient x1="50%" y1="-2539.2843%" x2="50%" y2="541.519591%" id="linearGradient-2">
            <stop stop-color="#E35D5B" offset="0%"></stop>
            <stop stop-color="#E53935" offset="100%"></stop>
        </linearGradient>
        <linearGradient x1="50%" y1="-738.724066%" x2="50%" y2="2345.46921%" id="linearGradient-3">
            <stop stop-color="#E35D5B" offset="0%"></stop>
            <stop stop-color="#E53935" offset="100%"></stop>
        </linearGradient>
        <linearGradient x1="50%" y1="-737.88372%" x2="50%" y2="2344.26122%" id="linearGradient-4">
            <stop stop-color="#E35D5B" offset="0%"></stop>
            <stop stop-color="#E53935" offset="100%"></stop>
        </linearGradient>
    </defs>
    <g id="•-🚀-Website" stroke="none" stroke-width="1" fill="none" fill-rule="evenodd">
        <g id="Homepage" transform="translate(-948.000000, -868.000000)" fill-rule="nonzero">
            <g id="shop_icon" transform="translate(948.000000, 868.000000)">
                <g id="Group">
                    <path d="M68.7007069,60.5614969 L67.5364657,60.5614969 L67.5364657,41.9336383 L67.4409979,41.9336383 C68.2657173,40.5202495 68.7004158,38.9131601 68.7007069,37.2766736 L68.7007069,36.1124324 C68.6970686,35.8359252 68.5937422,35.5700416 68.4096466,35.3638254 L68.4201247,35.3556757 L67.5364657,34.324158 L67.5364657,18.648815 C67.5364657,16.0768607 65.4514553,13.9918503 62.879501,13.9918503 L52.0520582,13.9918503 C50.1328067,4.53981289 40.9144906,-1.56663202 31.4624532,0.352765073 C24.5899376,1.74825364 19.2188565,7.11948025 17.823368,13.9918503 L6.99592516,13.9918503 C4.42397089,13.9918503 2.3389605,16.0768607 2.3389605,18.648815 L2.3389605,34.324158 L1.45530146,35.3556757 L1.46577963,35.3638254 C1.28168399,35.5701871 1.17835759,35.8359252 1.17471933,36.1124324 L1.17471933,37.2766736 C1.1750104,38.9131601 1.60970894,40.5202495 2.43442827,41.9336383 L2.3389605,41.9336383 L2.3389605,60.5614969 L1.17471933,60.5614969 C0.531767152,60.5614969 0.0104781705,61.0827859 0.0104781705,61.725738 L0.0104781705,65.2184615 C0.0104781705,67.7904158 2.09548857,69.8754262 4.66744283,69.8754262 L65.2079834,69.8754262 C67.7799376,69.8754262 69.864948,67.7904158 69.864948,65.2184615 L69.864948,61.725738 C69.864948,61.0827859 69.343659,60.5614969 68.7007069,60.5614969 L68.7007069,60.5614969 Z M9.85995842,29.1269854 L20.3660707,29.1269854 L17.8711019,34.9481913 L4.87002079,34.9481913 L9.85995842,29.1269854 Z M60.0154678,29.1269854 L65.0054054,34.9481913 L52.0043243,34.9481913 L49.5093555,29.1269854 L60.0154678,29.1269854 Z M50.0728482,37.2766736 C50.0728482,41.1346778 46.9454054,44.2621206 43.0874012,44.2621206 C39.2293971,44.2621206 36.1019543,41.1346778 36.1019543,37.2766736 L50.0728482,37.2766736 Z M46.977131,29.1269854 L49.4720998,34.9481913 L36.1019543,34.9481913 L36.1019543,29.1269854 L46.977131,29.1269854 Z M33.7734719,34.9481913 L20.4033264,34.9481913 L22.8982952,29.1269854 L33.7734719,29.1269854 L33.7734719,34.9481913 Z M33.7734719,37.2766736 C33.7734719,41.1346778 30.6460291,44.2621206 26.7880249,44.2621206 C22.9300208,44.2621206 19.802578,41.1346778 19.802578,37.2766736 L33.7734719,37.2766736 Z M17.4740956,37.2766736 C17.4740956,41.1346778 14.3466528,44.2621206 10.4886486,44.2621206 C6.63064449,44.2621206 3.50320166,41.1346778 3.50320166,37.2766736 L17.4740956,37.2766736 Z M10.4886486,46.5906029 C13.87921,46.5885655 17.0006861,44.7441164 18.6383368,41.7753015 C21.1180249,46.2762578 26.7769647,47.9147817 31.2777755,45.4352391 C32.8193763,44.5859252 34.0883992,43.3169023 34.9377131,41.7753015 C37.4174012,46.2762578 43.076341,47.9147817 47.5771518,45.4352391 C49.1187526,44.5859252 50.3877755,43.3169023 51.2370894,41.7753015 C52.8747401,44.7441164 55.9962162,46.5885655 59.3867775,46.5906029 L59.3867775,53.5760499 L10.4886486,53.5760499 L10.4886486,46.5906029 Z M59.3867775,44.2621206 C55.5303742,44.2583368 52.4051143,41.1330769 52.4013306,37.2766736 L66.3722245,37.2766736 C66.3682952,41.1329314 63.2431809,44.2581913 59.3867775,44.2621206 Z M34.9377131,2.34943867 C43.2925988,2.35904366 50.0632432,9.12968815 50.0728482,17.4845738 C50.0708108,19.0669231 49.8172973,20.6387942 49.3219127,22.1415385 L46.8548857,22.1415385 C49.451289,15.5624116 46.2228482,8.12422037 39.6437214,5.52767152 C33.0645946,2.93112266 25.6264033,6.15970894 23.0298545,12.7388358 C21.8376715,15.759605 21.8376715,19.1206237 23.0298545,22.1415385 L20.5535135,22.1415385 C20.0581289,20.6386486 19.8046154,19.0667775 19.802578,17.4844283 C19.812183,9.12968815 26.5828274,2.35904366 34.9377131,2.34943867 L34.9377131,2.34943867 Z M36.593264,17.0107277 L34.324158,15.8755925 C33.8328482,15.6302287 33.6336175,15.0331185 33.8789813,14.5418087 C34.0472141,14.205052 34.3912474,13.9921414 34.7677339,13.9918503 L35.1076923,13.9918503 C35.6564865,13.9924324 36.1013721,14.4373181 36.1019543,14.9861123 L36.1019543,15.1560915 L38.4304366,15.1560915 L38.4304366,14.9861123 C38.425052,13.5395426 37.4828898,12.2632432 36.1019543,11.832183 L36.1019543,10.4991268 L33.7734719,10.4991268 L33.7734719,11.832183 C32.0272557,12.3753015 31.0520582,14.2311019 31.5951767,15.9773181 C31.8635343,16.8401663 32.4730146,17.5558836 33.2821622,17.95842 L35.5512682,19.0935551 C36.042578,19.3389189 36.2418087,19.9360291 35.9964449,20.4273389 C35.8282121,20.7640956 35.4841788,20.9770062 35.1076923,20.9772973 L34.7677339,20.9772973 C34.2189397,20.9767152 33.7740541,20.5318295 33.7734719,19.9830353 L33.7734719,19.8130561 L31.4449896,19.8130561 L31.4449896,19.9830353 C31.4477547,20.7771933 31.7370686,21.5437006 32.2599584,22.141684 L25.5597505,22.141684 C22.984158,16.9593555 25.0972557,10.6704158 30.2795842,8.09496881 C35.4619127,5.51952183 41.7507069,7.63247401 44.3261538,12.8148025 C45.7861123,15.7523285 45.7861123,19.204158 44.3261538,22.141684 L37.6154678,22.141684 C38.8159459,20.7716632 38.67842,18.687817 37.3083992,17.4873389 C37.092578,17.2981497 36.8528898,17.1380665 36.5955925,17.0108732 L36.593264,17.0107277 Z M4.66744283,18.648815 C4.66744283,17.3627651 5.70987526,16.3203326 6.99592516,16.3203326 L17.5334719,16.3203326 C17.5078586,16.7068607 17.4740956,17.0910603 17.4740956,17.4845738 C17.4755509,19.0593555 17.6937006,20.6262786 18.122578,22.1415385 L16.3098545,22.1415385 L16.3098545,24.4700208 L53.5655717,24.4700208 L53.5655717,22.1415385 L51.7528482,22.1415385 C52.1817256,20.6262786 52.3998753,19.0593555 52.4013306,17.4845738 C52.4013306,17.0910603 52.3675676,16.7068607 52.3419543,16.3203326 L62.879501,16.3203326 C64.1655509,16.3203326 65.2079834,17.3627651 65.2079834,18.648815 L65.2079834,31.6068191 L61.7152599,27.5319751 L61.7152599,20.9772973 C61.7152599,20.3343451 61.1939709,19.8130561 60.5510187,19.8130561 L55.8940541,19.8130561 L55.8940541,22.1415385 L59.3867775,22.1415385 L59.3867775,26.7985031 L10.4886486,26.7985031 L10.4886486,22.1415385 L13.9813721,22.1415385 L13.9813721,19.8130561 L9.32440748,19.8130561 C8.6814553,19.8130561 8.16016632,20.3343451 8.16016632,20.9772973 L8.16016632,27.5319751 L4.66744283,31.6068191 L4.66744283,18.648815 Z M4.66744283,44.5357173 C5.69488565,45.3586902 6.88532225,45.9539085 8.16016632,46.282079 L8.16016632,54.7402911 C8.16016632,55.3832432 8.6814553,55.9045322 9.32440748,55.9045322 L60.5510187,55.9045322 C61.1939709,55.9045322 61.7152599,55.3832432 61.7152599,54.7402911 L61.7152599,46.2844075 C62.990104,45.956237 64.1805405,45.3610187 65.2079834,44.5380457 L65.2079834,60.5614969 L45.4158836,60.5614969 C45.1070686,60.5614969 44.8110603,60.6843243 44.5927651,60.9026195 L42.6054054,62.8899792 L27.2700208,62.8899792 L25.2826611,60.9026195 C25.0643659,60.6843243 24.7683576,60.5614969 24.4595426,60.5614969 L4.66744283,60.5614969 L4.66744283,44.5357173 Z M67.5364657,65.2184615 C67.5364657,66.5045114 66.4940333,67.5469439 65.2079834,67.5469439 L4.66744283,67.5469439 C3.38139293,67.5469439 2.3389605,66.5045114 2.3389605,65.2184615 L2.3389605,62.8899792 L23.9775468,62.8899792 L25.9649064,64.8773389 C26.1832017,65.0956341 26.47921,65.2184615 26.7880249,65.2184615 L43.0874012,65.2184615 C43.3962162,65.2184615 43.6922245,65.0956341 43.9105198,64.8773389 L45.8978794,62.8899792 L67.5364657,62.8899792 L67.5364657,65.2184615 Z" id="Shape" fill="url(#linearGradient-1)"></path>
                    <polygon id="Path" fill="url(#linearGradient-2)" points="33.7734719 58.2330146 36.1019543 58.2330146 36.1019543 60.5614969 33.7734719 60.5614969"></polygon>
                </g>
                <g id="Group" transform="translate(26.777547, 16.299376)">
                    <polygon id="Path" fill="url(#linearGradient-3)" points="0.0104781705 0.020956341 2.3389605 0.020956341 2.3389605 2.34943867 0.0104781705 2.34943867"></polygon>
                    <polygon id="Path" fill="url(#linearGradient-4)" points="13.9813721 0.020956341 16.3098545 0.020956341 16.3098545 2.34943867 13.9813721 2.34943867"></polygon>
                </g>
            </g>
        </g>
    </g>
</svg>